<svg xmlns="http://www.w3.org/2000/svg" width="25" height="25" viewBox="0 0 25 25" fill="none">
  <path d="M20.9199 2.64062H8.91992C8.38949 2.64063 7.88078 2.85134 7.50571 3.22641C7.13064 3.60148 6.91992 4.11019 6.91992 4.64062V16.6406C6.91992 17.1711 7.13064 17.6798 7.50571 18.0548C7.88078 18.4299 8.38949 18.6406 8.91992 18.6406H20.9199C21.4504 18.6406 21.9591 18.4299 22.3341 18.0548C22.7092 17.6798 22.9199 17.1711 22.9199 16.6406V4.64062C22.9199 4.11019 22.7092 3.60148 22.3341 3.22641C21.9591 2.85134 21.4504 2.64063 20.9199 2.64062ZM20.9199 16.6406H8.91992V4.64062H20.9199V16.6406ZM16.9199 20.6406V22.6406H4.91992C4.38949 22.6406 3.88078 22.4299 3.50571 22.0548C3.13064 21.6798 2.91992 21.1711 2.91992 20.6406V7.64062H4.91992V20.6406H16.9199ZM19.4499 8.70063L18.3899 7.64062L13.5099 12.5206L11.3899 10.4006L10.3299 11.4606L13.5099 14.6406L19.4499 8.70063Z" fill="#6B6B6B"/>
</svg>