<svg xmlns="http://www.w3.org/2000/svg" width="27" height="32" viewBox="0 0 27 32" fill="none">
  <path d="M13.6992 32C12.8371 31.9958 12.0112 31.6579 11.4 31.0591C10.7889 30.4603 10.4415 29.6489 10.433 28.8H16.933C16.9364 29.2278 16.8536 29.652 16.6892 30.048C16.4791 30.5228 16.1573 30.9416 15.7505 31.2698C15.3436 31.5981 14.8633 31.8264 14.3492 31.936H14.2728C14.0841 31.9747 13.892 31.9961 13.6992 32ZM26.6992 27.2H0.699219V24L3.94922 22.4V13.6C3.86361 11.3426 4.38136 9.1026 5.45072 7.104C5.97695 6.18763 6.69454 5.39154 7.55615 4.76824C8.41776 4.14493 9.4038 3.70859 10.4492 3.488V0H16.9492V3.488C21.1401 4.4704 23.4492 8.0608 23.4492 13.6V22.4L26.6992 24V27.2Z" fill="url(#paint0_linear_1155_264)"/>
  <defs>
    <linearGradient id="paint0_linear_1155_264" x1="3.94922" y1="-2.64049e-07" x2="25.4152" y2="33.1058" gradientUnits="userSpaceOnUse">
      <stop stop-color="#FFBC00"/>
      <stop offset="1" stop-color="#F08200"/>
    </linearGradient>
  </defs>
</svg>