<svg xmlns="http://www.w3.org/2000/svg" width="17" height="17" viewBox="0 0 17 17" fill="none">
  <path d="M4.9681 2.83366C4.9681 2.45794 5.10857 2.0976 5.35862 1.83192C5.60867 1.56625 5.94781 1.41699 6.30143 1.41699H10.3014C10.6551 1.41699 10.9942 1.56625 11.2442 1.83192C11.4943 2.0976 11.6348 2.45794 11.6348 2.83366V4.25033H14.3014C14.4782 4.25033 14.6478 4.32495 14.7728 4.45779C14.8979 4.59063 14.9681 4.7708 14.9681 4.95866C14.9681 5.14652 14.8979 5.32669 14.7728 5.45953C14.6478 5.59236 14.4782 5.66699 14.3014 5.66699H13.5888L13.0108 14.2676C12.9868 14.625 12.8363 14.9595 12.5895 15.2037C12.3427 15.4479 12.018 15.5837 11.6808 15.5837H4.92143C4.58419 15.5837 4.25948 15.4479 4.01269 15.2037C3.7659 14.9595 3.61538 14.625 3.59143 14.2676L3.01477 5.66699H2.30143C2.12462 5.66699 1.95505 5.59236 1.83003 5.45953C1.705 5.32669 1.63477 5.14652 1.63477 4.95866C1.63477 4.7708 1.705 4.59063 1.83003 4.45779C1.95505 4.32495 2.12462 4.25033 2.30143 4.25033H4.9681V2.83366ZM6.30143 4.25033H10.3014V2.83366H6.30143V4.25033ZM4.35077 5.66699L4.9221 14.167H11.6814L12.2528 5.66699H4.35077ZM6.9681 7.08366C7.14491 7.08366 7.31448 7.15829 7.4395 7.29113C7.56453 7.42396 7.63477 7.60413 7.63477 7.79199V12.042C7.63477 12.2299 7.56453 12.41 7.4395 12.5429C7.31448 12.6757 7.14491 12.7503 6.9681 12.7503C6.79129 12.7503 6.62172 12.6757 6.49669 12.5429C6.37167 12.41 6.30143 12.2299 6.30143 12.042V7.79199C6.30143 7.60413 6.37167 7.42396 6.49669 7.29113C6.62172 7.15829 6.79129 7.08366 6.9681 7.08366ZM9.63477 7.08366C9.81158 7.08366 9.98114 7.15829 10.1062 7.29113C10.2312 7.42396 10.3014 7.60413 10.3014 7.79199V12.042C10.3014 12.2299 10.2312 12.41 10.1062 12.5429C9.98114 12.6757 9.81158 12.7503 9.63477 12.7503C9.45795 12.7503 9.28838 12.6757 9.16336 12.5429C9.03834 12.41 8.9681 12.2299 8.9681 12.042V7.79199C8.9681 7.60413 9.03834 7.42396 9.16336 7.29113C9.28838 7.15829 9.45795 7.08366 9.63477 7.08366Z" fill="#756623"/>
</svg>