<svg xmlns="http://www.w3.org/2000/svg" width="25" height="25" viewBox="0 0 25 25" fill="none">
  <path d="M13.9199 6.5V10.5H16.4199M15.1049 2.5H10.4199C9.88949 2.5 9.38078 2.71071 9.00571 3.08579C8.63064 3.46086 8.41992 3.96957 8.41992 4.5V16.5C8.41992 17.0304 8.63064 17.5391 9.00571 17.9142C9.38078 18.2893 9.88949 18.5 10.4199 18.5H18.4199C18.9504 18.5 19.4591 18.2893 19.8341 17.9142C20.2092 17.5391 20.4199 17.0304 20.4199 16.5V7.742C20.4199 7.47556 20.3666 7.21181 20.2632 6.96624C20.1599 6.72068 20.0085 6.49824 19.8179 6.312L16.5029 3.07C16.1293 2.70466 15.6275 2.50007 15.1049 2.5Z" stroke="#008037" stroke-width="2" stroke-linecap="round" stroke-linejoin="round"/>
  <path d="M16.4199 18.5V20.5C16.4199 21.0304 16.2092 21.5391 15.8341 21.9142C15.4591 22.2893 14.9504 22.5 14.4199 22.5H6.41992C5.88949 22.5 5.38078 22.2893 5.00571 21.9142C4.63064 21.5391 4.41992 21.0304 4.41992 20.5V9.5C4.41992 8.96957 4.63064 8.46086 5.00571 8.08579C5.38078 7.71071 5.88949 7.5 6.41992 7.5H8.41992" stroke="#008037" stroke-width="2" stroke-linecap="round" stroke-linejoin="round"/>
</svg>