<svg width="20" height="21" viewBox="0 0 20 21" fill="none" xmlns="http://www.w3.org/2000/svg">
<path d="M10.3 5.45797C10.5 5.27797 10.74 5.16797 11 5.16797C11.27 5.16797 11.5 5.27797 11.71 5.45797C11.9 5.66797 12 5.90797 12 6.16797C12 6.43797 11.9 6.66797 11.71 6.87797C11.5 7.06797 11.27 7.16797 11 7.16797C10.74 7.16797 10.5 7.06797 10.3 6.87797C10.11 6.66797 10 6.43797 10 6.16797C10 5.90797 10.11 5.66797 10.3 5.45797ZM7.8 10.138C7.8 10.138 9.97 8.41797 10.76 8.34797C11.5 8.28797 11.35 9.13797 11.28 9.57797L11.27 9.63797C11.13 10.168 10.96 10.808 10.79 11.418C10.41 12.808 10.04 14.168 10.13 14.418C10.23 14.758 10.85 14.328 11.3 14.028C11.36 13.988 11.41 13.948 11.46 13.918C11.46 13.918 11.54 13.838 11.62 13.948C11.64 13.978 11.66 14.008 11.68 14.028C11.77 14.168 11.82 14.218 11.7 14.298L11.66 14.318C11.44 14.468 10.5 15.128 10.12 15.368C9.71 15.638 8.14 16.538 8.38 14.788C8.59 13.558 8.87 12.498 9.09 11.668C9.5 10.168 9.68 9.48797 8.76 10.078C8.39 10.298 8.17 10.438 8.04 10.528C7.93 10.608 7.92 10.608 7.85 10.478L7.82 10.418L7.77 10.338C7.7 10.238 7.7 10.228 7.8 10.138ZM20 10.168C20 15.668 15.5 20.168 10 20.168C4.5 20.168 0 15.668 0 10.168C0 4.66797 4.5 0.167969 10 0.167969C15.5 0.167969 20 4.66797 20 10.168ZM18 10.168C18 5.74797 14.42 2.16797 10 2.16797C5.58 2.16797 2 5.74797 2 10.168C2 14.588 5.58 18.168 10 18.168C14.42 18.168 18 14.588 18 10.168Z" fill="#FF1616"/>
</svg>
