<svg xmlns="http://www.w3.org/2000/svg" width="23" height="23" viewBox="0 0 23 23" fill="none">
  <path d="M20.7191 7.10625C20.7191 6.88745 20.6322 6.6776 20.4775 6.52289C20.3228 6.36817 20.1129 6.28125 19.8941 6.28125H3.94414C3.72534 6.28125 3.51549 6.36817 3.36078 6.52289C3.20606 6.6776 3.11914 6.88745 3.11914 7.10625C3.11914 7.32505 3.20606 7.5349 3.36078 7.68961C3.51549 7.84433 3.72534 7.93125 3.94414 7.93125H19.8941C20.1129 7.93125 20.3228 7.84433 20.4775 7.68961C20.6322 7.5349 20.7191 7.32505 20.7191 7.10625ZM20.7191 10.4062C20.7191 10.1874 20.6322 9.9776 20.4775 9.82289C20.3228 9.66817 20.1129 9.58125 19.8941 9.58125H3.94414C3.72534 9.58125 3.51549 9.66817 3.36078 9.82289C3.20606 9.9776 3.11914 10.1874 3.11914 10.4062C3.11914 10.6251 3.20606 10.8349 3.36078 10.9896C3.51549 11.1443 3.72534 11.2313 3.94414 11.2313H14.3457C15.1373 10.8678 15.9982 10.6801 16.8691 10.6813C17.7401 10.6801 18.601 10.8678 19.3925 11.2313H19.8941C20.1129 11.2313 20.3228 11.1443 20.4775 10.9896C20.6322 10.8349 20.7191 10.6251 20.7191 10.4062ZM10.9181 17.8313H3.94414C3.72534 17.8313 3.51549 17.7443 3.36078 17.5896C3.20606 17.4349 3.11914 17.2251 3.11914 17.0063C3.11914 16.7874 3.20606 16.5776 3.36078 16.4229C3.51549 16.2682 3.72534 16.1813 3.94414 16.1813H10.8433C10.7941 16.7322 10.8185 17.2872 10.9181 17.8313ZM11.2316 14.5312H3.94414C3.72534 14.5312 3.51549 14.4443 3.36078 14.2896C3.20606 14.1349 3.11914 13.9251 3.11914 13.7063C3.11914 13.4874 3.20606 13.2776 3.36078 13.1229C3.51549 12.9682 3.72534 12.8813 3.94414 12.8813H12.2018C11.7929 13.3762 11.4654 13.9332 11.2316 14.5312ZM21.8191 16.7312C21.8191 18.0441 21.2976 19.3031 20.3693 20.2314C19.441 21.1597 18.182 21.6813 16.8691 21.6813C15.5563 21.6813 14.2973 21.1597 13.369 20.2314C12.4407 19.3031 11.9191 18.0441 11.9191 16.7312C11.9191 15.4184 12.4407 14.1594 13.369 13.2311C14.2973 12.3028 15.5563 11.7812 16.8691 11.7812C18.182 11.7812 19.441 12.3028 20.3693 13.2311C21.2976 14.1594 21.8191 15.4184 21.8191 16.7312ZM16.8691 17.509L18.1297 18.7706C18.1809 18.8218 18.2416 18.8624 18.3084 18.89C18.3752 18.9177 18.4468 18.9319 18.5191 18.9319C18.5915 18.9319 18.6631 18.9177 18.7299 18.89C18.7967 18.8624 18.8574 18.8218 18.9085 18.7706C18.9597 18.7195 19.0002 18.6588 19.0279 18.592C19.0556 18.5252 19.0698 18.4536 19.0698 18.3813C19.0698 18.3089 19.0556 18.2373 19.0279 18.1705C19.0002 18.1037 18.9597 18.043 18.9085 17.9918L17.6468 16.7312L18.9085 15.4707C19.0118 15.3674 19.0698 15.2273 19.0698 15.0813C19.0698 14.9352 19.0118 14.7951 18.9085 14.6918C18.8053 14.5886 18.6652 14.5306 18.5191 14.5306C18.3731 14.5306 18.233 14.5886 18.1297 14.6918L16.8691 15.9536L15.6085 14.6918C15.5053 14.5886 15.3652 14.5306 15.2191 14.5306C15.0731 14.5306 14.933 14.5886 14.8297 14.6918C14.7265 14.7951 14.6684 14.9352 14.6684 15.0813C14.6684 15.2273 14.7265 15.3674 14.8297 15.4707L16.0914 16.7312L14.8297 17.9918C14.7786 18.043 14.738 18.1037 14.7104 18.1705C14.6827 18.2373 14.6684 18.3089 14.6684 18.3813C14.6684 18.4536 14.6827 18.5252 14.7104 18.592C14.738 18.6588 14.7786 18.7195 14.8297 18.7706C14.8809 18.8218 14.9416 18.8624 15.0084 18.89C15.0752 18.9177 15.1468 18.9319 15.2191 18.9319C15.2915 18.9319 15.3631 18.9177 15.4299 18.89C15.4967 18.8624 15.5574 18.8218 15.6085 18.7706L16.8691 17.509Z" fill="#6B6B6B"/>
</svg>