<svg xmlns="http://www.w3.org/2000/svg" width="25" height="25" viewBox="0 0 25 25" fill="none">
  <g clip-path="url(#clip0_8283_3887)">
    <path d="M20.8242 2.5C21.0894 2.5 21.3438 2.60536 21.5313 2.79289C21.7189 2.98043 21.8242 3.23478 21.8242 3.5V7.257L19.8242 9.257V4.5H5.82422V20.5H19.8242V17.742L21.8242 15.742V21.5C21.8242 21.7652 21.7189 22.0196 21.5313 22.2071C21.3438 22.3946 21.0894 22.5 20.8242 22.5H4.82422C4.559 22.5 4.30465 22.3946 4.11711 22.2071C3.92958 22.0196 3.82422 21.7652 3.82422 21.5V3.5C3.82422 3.23478 3.92958 2.98043 4.11711 2.79289C4.30465 2.60536 4.559 2.5 4.82422 2.5H20.8242ZM22.6022 9.308L24.0162 10.722L16.2382 18.5L14.8222 18.498L14.8242 17.086L22.6022 9.308ZM13.8242 12.5V14.5H8.82422V12.5H13.8242ZM16.8242 8.5V10.5H8.82422V8.5H16.8242Z" fill="#6B6B6B"/>
  </g>
  <defs>
    <clipPath id="clip0_8283_3887">
      <rect width="24" height="24" fill="white" transform="translate(0.824219 0.5)"/>
    </clipPath>
  </defs>
</svg>