<svg xmlns="http://www.w3.org/2000/svg" width="26" height="25" viewBox="0 0 26 25" fill="none">
  <mask id="path-1-inside-1_8509_336" fill="white">
    <path fill-rule="evenodd" clip-rule="evenodd" d="M14.3008 6.5C14.3008 7.32843 13.6292 8 12.8008 8C11.9724 8 11.3008 7.32843 11.3008 6.5C11.3008 5.67157 11.9724 5 12.8008 5C13.6292 5 14.3008 5.67157 14.3008 6.5ZM14.3008 12.5C14.3008 13.3284 13.6292 14 12.8008 14C11.9724 14 11.3008 13.3284 11.3008 12.5C11.3008 11.6716 11.9724 11 12.8008 11C13.6292 11 14.3008 11.6716 14.3008 12.5ZM12.8008 20C13.6292 20 14.3008 19.3284 14.3008 18.5C14.3008 17.6716 13.6292 17 12.8008 17C11.9724 17 11.3008 17.6716 11.3008 18.5C11.3008 19.3284 11.9724 20 12.8008 20Z"/>
  </mask>
  <path fill-rule="evenodd" clip-rule="evenodd" d="M14.3008 6.5C14.3008 7.32843 13.6292 8 12.8008 8C11.9724 8 11.3008 7.32843 11.3008 6.5C11.3008 5.67157 11.9724 5 12.8008 5C13.6292 5 14.3008 5.67157 14.3008 6.5ZM14.3008 12.5C14.3008 13.3284 13.6292 14 12.8008 14C11.9724 14 11.3008 13.3284 11.3008 12.5C11.3008 11.6716 11.9724 11 12.8008 11C13.6292 11 14.3008 11.6716 14.3008 12.5ZM12.8008 20C13.6292 20 14.3008 19.3284 14.3008 18.5C14.3008 17.6716 13.6292 17 12.8008 17C11.9724 17 11.3008 17.6716 11.3008 18.5C11.3008 19.3284 11.9724 20 12.8008 20Z" fill="#66758D"/>
  <path d="M12.8008 9C14.1815 9 15.3008 7.88071 15.3008 6.5H13.3008C13.3008 6.77614 13.0769 7 12.8008 7V9ZM10.3008 6.5C10.3008 7.88071 11.4201 9 12.8008 9V7C12.5246 7 12.3008 6.77614 12.3008 6.5H10.3008ZM12.8008 4C11.4201 4 10.3008 5.11929 10.3008 6.5H12.3008C12.3008 6.22386 12.5246 6 12.8008 6V4ZM15.3008 6.5C15.3008 5.11929 14.1815 4 12.8008 4V6C13.0769 6 13.3008 6.22386 13.3008 6.5H15.3008ZM12.8008 15C14.1815 15 15.3008 13.8807 15.3008 12.5H13.3008C13.3008 12.7761 13.0769 13 12.8008 13V15ZM10.3008 12.5C10.3008 13.8807 11.4201 15 12.8008 15V13C12.5246 13 12.3008 12.7761 12.3008 12.5H10.3008ZM12.8008 10C11.4201 10 10.3008 11.1193 10.3008 12.5H12.3008C12.3008 12.2239 12.5246 12 12.8008 12V10ZM15.3008 12.5C15.3008 11.1193 14.1815 10 12.8008 10V12C13.0769 12 13.3008 12.2239 13.3008 12.5H15.3008ZM13.3008 18.5C13.3008 18.7761 13.0769 19 12.8008 19V21C14.1815 21 15.3008 19.8807 15.3008 18.5H13.3008ZM12.8008 18C13.0769 18 13.3008 18.2239 13.3008 18.5H15.3008C15.3008 17.1193 14.1815 16 12.8008 16V18ZM12.3008 18.5C12.3008 18.2239 12.5246 18 12.8008 18V16C11.4201 16 10.3008 17.1193 10.3008 18.5H12.3008ZM12.8008 19C12.5246 19 12.3008 18.7761 12.3008 18.5H10.3008C10.3008 19.8807 11.4201 21 12.8008 21V19Z" fill="#66758D" mask="url(#path-1-inside-1_8509_336)"/>
</svg>